Coordinates
version=1
nRows=7
nColumns=40
inDegrees=yes

Units are S.I. units (second, meters, Newtons, ...)
Angles are in degrees.

endheader
time	pelvis_tilt	pelvis_list	pelvis_rotation	pelvis_tx	pelvis_ty	pelvis_tz	hip_flexion_r	hip_adduction_r	hip_rotation_r	knee_angle_r	knee_angle_r_beta	ankle_angle_r	subtalar_angle_r	mtp_angle_r	hip_flexion_l	hip_adduction_l	hip_rotation_l	knee_angle_l	knee_angle_l_beta	ankle_angle_l	subtalar_angle_l	mtp_angle_l	lumbar_extension	lumbar_bending	lumbar_rotation	arm_flex_r	arm_add_r	arm_rot_r	elbow_flex_r	pro_sup_r	wrist_flex_r	wrist_dev_r	arm_flex_l	arm_add_l	arm_rot_l	elbow_flex_l	pro_sup_l	wrist_flex_l	wrist_dev_l
     16.14250000	     -2.34642078	     -4.16022172	      1.86069865	      0.98722799	      0.91692304	      0.54420081	     14.62863338	      4.92749020	    -10.84849214	     28.19544790	     28.19544790	     16.61372994	    -11.79423157	     -0.69044519	     28.07131915	    -13.39234127	      1.49063125	     62.98101655	     62.98101655	     15.26422671	    -19.52236663	     20.94479287	    -11.10655412	      6.06068898	      0.26870513	     18.38912500	    -17.94167056	    -13.19980178	     39.67224287	     45.98627642	      0.00000000	      0.00000000	      6.49221516	     -8.37884709	     -2.65745755	     26.62276642	     45.84993710	      0.00000000	      0.00000000
     16.16185714	     -2.19388738	     -4.03210877	      2.70360754	      0.98579033	      0.91631648	      0.54466652	     14.30853929	      4.86794346	    -11.01799065	     28.47367739	     28.47367739	     17.03221659	    -12.66541089	     -0.46033616	     29.40614520	    -12.99246283	      1.76084166	     61.39576009	     61.39576009	     15.73090779	    -19.54211379	     21.56749484	    -11.20535605	      5.86313781	      0.43606189	     20.41253129	    -18.09872202	    -13.35167130	     41.19734711	     45.94689130	      0.00000000	      0.00000000	      4.29000986	     -7.97507547	     -2.15357283	     25.72726374	     45.72656334	      0.00000000	      0.00000000
     16.18121429	     -2.12555245	     -3.86221071	      3.56437130	      0.98422067	      0.91603229	      0.54480752	     13.96339614	      4.72884901	    -11.30907942	     28.54320968	     28.54320968	     17.38979130	    -13.30989244	     -0.22545854	     30.56681259	    -12.41799723	      1.98597488	     59.13652991	     59.13652991	     15.91650468	    -19.53860082	     21.80109349	    -11.23305732	      5.65251067	      0.53476956	     22.42712855	    -18.20596161	    -13.51843856	     42.99024786	     45.89780728	      0.00000000	      0.00000000	      2.07749052	     -7.66911693	     -1.67891754	     25.05335291	     45.60362244	      0.00000000	      0.00000000
     16.20057143	     -2.15692321	     -3.68671896	      4.42901294	      0.98244761	      0.91607517	      0.54465045	     13.60646874	      4.54718476	    -11.70884243	     28.37451906	     28.37451906	     17.67963216	    -13.66907901	      0.03200149	     31.55685333	    -11.68754335	      2.25474447	     56.26965352	     56.26965352	     15.73447993	    -19.50444552	     21.57755268	    -11.20256901	      5.46180594	      0.59592798	     24.38432491	    -18.30199257	    -13.69987245	     45.17448295	     45.83413864	      0.00000000	      0.00000000	     -0.15693752	     -7.44897114	     -1.11537926	     24.73201331	     45.45989489	      0.00000000	      0.00000000
     16.21992857	     -2.26651239	     -3.48096501	      5.25698854	      0.98056572	      0.91648729	      0.54427217	     13.21811049	      4.30460516	    -12.20689989	     28.01299350	     28.01299350	     18.02499826	    -13.70449505	      0.62248847	     32.27621182	    -10.84583377	      2.47771954	     52.78678787	     52.78678787	     14.88640313	    -19.44092553	     20.01961421	    -11.15095702	      5.24381922	      1.28364452	     25.38748183	    -18.92782920	    -13.92046972	     48.85656712	     45.70792954	      0.00000000	      0.00000000	     -2.63551643	     -8.20567565	      5.72514883	     26.17425956	     44.38764231	      0.00000000	      0.00000000
     16.23928571	     -2.44250407	     -3.25793197	      6.07976763	      0.97855649	      0.91725210	      0.54358737	     12.74888123	      4.01808629	    -12.81514861	     27.35679518	     27.35679518	     18.08174829	    -13.61761771	      0.63273581	     32.80699715	     -9.81998388	      2.87870567	     48.94610490	     48.94610490	     14.15460657	    -19.30654392	     19.45322971	    -11.01273840	      5.00236608	      1.23416221	     27.56424388	    -18.94716159	    -14.11822745	     50.77368644	     45.65873269	      0.00000000	      0.00000000	     -4.61377044	     -8.03126425	      5.87326671	     25.86482816	     44.35288358	      0.00000000	      0.00000000
     16.25864286	     -2.70347621	     -3.06720275	      6.85884798	      0.97649540	      0.91819029	      0.54273469	     12.25887706	      3.73701087	    -13.54634471	     26.49205905	     26.49205905	     18.04830357	    -13.21614009	      0.45199404	     33.10063045	     -8.79713529	      3.34510920	     44.68552423	     44.68552423	     12.62056207	    -19.07324334	     17.07644819	    -10.84401835	      4.79443458	      1.16388214	     29.48448116	    -18.91260487	    -14.24693579	     53.50289432	     45.57708785	      0.00000000	      0.00000000	     -6.72887127	     -7.98551761	      6.13789210	     26.32056020	     44.30807536	      0.00000000	      0.00000000
